<svg xmlns="http://www.w3.org/2000/svg" version="1.1" width="85.4" height="53.4">
    <svg width="85.4" height="53.4" viewBox="0 0 85.4 53.4" xmlns="http://www.w3.org/2000/svg">
        <g id="SvgjsG1005" stroke-linecap="round" fill-rule="evenodd" font-size="9pt" stroke="currentColor"
           stroke-width="0.25mm" fill="currentColor">
            <path d="M 56.9 35.7 L 56 33 L 55.6 32.6 A 2.433 2.433 0 0 0 55.586 32.356 Q 55.559 32.096 55.483 31.725 A 13.587 13.587 0 0 0 55.4 31.35 A 44.805 44.805 0 0 0 55.012 29.824 A 49.539 49.539 0 0 0 54.95 29.6 Q 54.717 28.76 54.483 28.094 A 16.844 16.844 0 0 0 54.45 28 A 32.264 32.264 0 0 0 54.348 27.718 Q 54.21 27.344 54.133 27.171 A 1.788 1.788 0 0 0 54.1 27.1 Q 54 27 53.7 25.9 Q 53.4 24.8 53.1 23.45 Q 52.8 22.1 52.55 20.95 Q 52.3 19.8 52.2 19.6 L 51.9 23 Q 51.7 23.2 51.7 23.35 A 0.339 0.339 0 0 1 51.686 23.44 Q 51.647 23.579 51.502 23.798 A 3.699 3.699 0 0 1 51.5 23.8 L 51.6 25.8 L 51 27.4 L 50.6 27.9 A 2.554 2.554 0 0 1 50.591 28.1 Q 50.57 28.363 50.5 28.75 A 7.362 7.362 0 0 0 50.439 29.141 Q 50.415 29.334 50.405 29.504 A 3.644 3.644 0 0 0 50.4 29.7 L 50.4 29.9 L 50.4 30.3 Q 50.4 30.672 50.314 31.13 A 6.465 6.465 0 0 1 50.3 31.2 Q 50.2 31.7 50.2 32.2 L 49.7 32.9 L 49.5 34.6 Q 49.423 34.983 49.376 35.248 A 14.128 14.128 0 0 0 49.35 35.4 A 4.666 4.666 0 0 0 49.322 35.594 Q 49.311 35.682 49.305 35.758 A 2.029 2.029 0 0 0 49.3 35.9 L 48.9 38.2 L 48.3 38.3 L 47.9 38.8 L 48 39.1 L 47.8 39.5 L 48.7 39 L 48.9 39.3 L 48.9 40.5 L 49.3 40.9 L 48.8 42.4 L 49 43.1 L 48.6 43.6 L 47.9 43.7 L 47.6 44.8 L 46.7 45.8 L 47.1 46.3 L 45.7 46.3 L 45.4 45 L 45.1 44.6 L 44.3 45.1 A 0.319 0.319 0 0 1 44.295 45.156 Q 44.29 45.187 44.278 45.211 A 0.148 0.148 0 0 1 44.25 45.25 Q 44.209 45.291 44.201 45.367 A 0.352 0.352 0 0 0 44.2 45.4 A 2.073 2.073 0 0 0 44.206 45.557 Q 44.212 45.632 44.223 45.718 A 4.728 4.728 0 0 0 44.25 45.9 Q 44.288 46.13 44.356 46.243 A 0.299 0.299 0 0 0 44.4 46.3 L 43.9 46.3 L 42.2 45.6 L 40.4 45.2 Q 40.109 44.909 40.006 43.915 A 7.979 7.979 0 0 1 40 43.85 A 9.785 9.785 0 0 0 39.959 43.486 Q 39.863 42.763 39.7 42.6 L 39.9 41.9 Q 40 41.6 40.1 41.35 Q 40.181 41.148 40.196 40.978 A 0.862 0.862 0 0 0 40.2 40.9 L 40.2 40.2 A 1.412 1.412 0 0 1 40.205 40.07 Q 40.217 39.943 40.254 39.866 A 0.241 0.241 0 0 1 40.3 39.8 L 40.7 39 L 40.7 38.6 L 41.2 37.8 L 41.2 36.9 A 2.143 2.143 0 0 1 41.208 36.729 Q 41.235 36.401 41.35 35.75 A 25.429 25.429 0 0 1 41.418 35.382 Q 41.505 34.927 41.572 34.691 A 2.184 2.184 0 0 1 41.6 34.6 L 42 33.3 L 42 33.2 Q 42 32.928 42.069 32.564 A 6.558 6.558 0 0 1 42.15 32.2 Q 42.3 31.6 42.4 31.3 L 42.2 30.1 Q 42.2 29.836 42.509 29.496 A 2.688 2.688 0 0 1 42.6 29.4 L 43 29 L 42.7 28.5 L 42.7 28.1 Q 42.782 28.018 42.963 27.77 A 13.121 13.121 0 0 0 43.05 27.65 A 25.268 25.268 0 0 0 43.295 27.3 Q 43.422 27.115 43.56 26.909 A 41.196 41.196 0 0 0 43.6 26.85 A 18.186 18.186 0 0 0 43.811 26.527 Q 43.913 26.365 44.001 26.22 A 9.813 9.813 0 0 0 44.1 26.05 A 2.626 2.626 0 0 0 44.188 25.884 Q 44.27 25.712 44.292 25.586 A 0.503 0.503 0 0 0 44.3 25.5 L 44.4 25.1 L 43.8 25.2 A 42.941 42.941 0 0 1 44.445 22.042 A 36.517 36.517 0 0 1 44.8 20.7 Q 45.316 18.895 45.388 16.5 A 26.441 26.441 0 0 0 45.4 15.7 L 46.3 13.7 L 46.6 12.6 Q 46.6 12.203 46.846 11.315 A 16.122 16.122 0 0 1 46.85 11.3 A 16.918 16.918 0 0 1 47.21 10.166 A 20.938 20.938 0 0 1 47.5 9.4 A 56.605 56.605 0 0 1 48.1 7.956 A 49.45 49.45 0 0 1 48.3 7.5 A 13.912 13.912 0 0 1 48.517 7.033 Q 48.784 6.488 49 6.2 L 51.5 5.9 A 1.628 1.628 0 0 1 52.065 6.152 Q 52.836 6.661 53.875 8.125 A 20.882 20.882 0 0 1 54.1 8.45 A 18.128 18.128 0 0 1 55.304 10.522 Q 55.862 11.634 56.377 12.965 A 38.736 38.736 0 0 1 57 14.7 L 57.3 14.6 Q 57.3 16.7 58.3 18.5 L 58.9 19.4 L 59.2 21.2 L 59.5 21.9 A 2.556 2.556 0 0 0 59.545 22.138 Q 59.641 22.536 59.835 22.591 A 0.237 0.237 0 0 0 59.9 22.6 A 58.092 58.092 0 0 1 60.299 24.021 Q 60.473 24.673 60.612 25.263 A 33.977 33.977 0 0 1 60.7 25.65 A 11.38 11.38 0 0 0 61.042 26.851 Q 61.338 27.717 61.8 28.7 L 61.9 28.4 Q 62.4 27.5 63.25 26.85 A 2.31 2.31 0 0 0 63.784 26.289 A 1.935 1.935 0 0 0 64.1 25.2 L 64.8 23.4 L 65.1 23.1 Q 65.3 23 65.35 22.9 Q 65.397 22.806 65.488 22.713 A 1.106 1.106 0 0 1 65.5 22.7 L 66.4 20.9 Q 67.445 18.905 68.129 17.541 A 114.037 114.037 0 0 0 68.2 17.4 L 69.45 14.9 L 70.6 12.6 Q 71.013 11.775 71.52 10.666 A 109.16 109.16 0 0 0 72 9.6 Q 71.911 9.6 71.901 9.442 A 0.673 0.673 0 0 1 71.9 9.4 A 2.411 2.411 0 0 1 72.48 7.834 A 3.469 3.469 0 0 1 72.85 7.45 Q 73.8 6.6 75 6.4 A 0.426 0.426 0 0 1 75.153 6.429 A 0.523 0.523 0 0 1 75.2 6.45 A 0.373 0.373 0 0 0 75.272 6.476 Q 75.363 6.5 75.5 6.5 A 1.093 1.093 0 0 0 75.735 6.477 Q 76.039 6.41 76.15 6.15 Q 76.244 5.93 76.398 5.848 A 0.424 0.424 0 0 1 76.6 5.8 L 76.9 5.6 A 0.451 0.451 0 0 0 76.952 5.539 Q 77 5.47 77 5.4 Q 77 5.266 77.045 5.177 A 0.296 0.296 0 0 1 77.1 5.1 L 77.9 5.2 L 79.5 5 A 17.521 17.521 0 0 0 80.156 5.389 Q 80.75 5.725 81.5 6.1 Q 82.306 6.503 82.571 6.906 A 0.713 0.713 0 0 1 82.7 7.3 L 82.4 7.7 L 82.7 8.4 L 82.5 8.6 L 82.3 9.5 Q 82.3 9.7 82.4 10.05 Q 82.5 10.4 82.6 10.8 L 82.9 11.8 A 1.228 1.228 0 0 0 82.914 11.963 Q 82.971 12.364 83.25 13.4 A 155.914 155.914 0 0 0 83.372 13.852 Q 83.619 14.756 83.7 15 L 83.3 18.1 L 83.3 21.9 L 83.5 23.8 L 83 24.8 A 1.487 1.487 0 0 0 82.949 25.005 Q 82.911 25.217 82.902 25.519 A 6.387 6.387 0 0 0 82.9 25.7 L 83 26 L 82.8 27.5 L 83.7 27.5 L 83.7 28.2 L 83.1 28.6 L 83.2 29 L 83.7 28.8 L 83.5 29.5 L 83.4 29.7 Q 83.4 29.9 83.6 30 Q 83.8 30.1 83.9 30.3 L 83.3 32 Q 83.3 32.1 83.1 32.9 L 82.8 33.5 L 83.6 33.2 L 83.7 33.7 L 83.4 34.3 L 83.5 34.7 L 84 34.7 Q 84.134 34.7 84.223 34.745 A 0.296 0.296 0 0 1 84.3 34.8 L 84.5 35.2 L 83.9 37.1 Q 83.738 37.262 83.675 37.684 A 3.281 3.281 0 0 0 83.65 37.9 Q 83.6 38.5 83.6 38.8 L 85 41.1 A 2.913 2.913 0 0 1 84.81 41.493 Q 84.689 41.699 84.543 41.856 A 1.728 1.728 0 0 1 84.5 41.9 L 84.1 42.4 L 84.8 42.3 L 85 42.8 L 84.6 43.7 Q 84.693 43.7 84.914 43.786 A 3.625 3.625 0 0 1 84.95 43.8 Q 85.152 43.881 85.322 43.896 A 0.862 0.862 0 0 0 85.4 43.9 L 85.4 44.3 L 84.6 44.8 L 85.1 50.7 A 1.204 1.204 0 0 0 84.852 51.065 A 1.478 1.478 0 0 0 84.8 51.2 L 84.6 51.5 A 0.206 0.206 0 0 0 84.545 51.51 Q 84.409 51.551 84.05 51.75 Q 83.6 52 83.05 52.25 Q 82.5 52.5 82.05 52.75 L 81.6 53 L 81.6 53.2 L 81.2 53.3 L 77.8 52.9 Q 77.575 53.125 77.406 53.125 A 0.234 0.234 0 0 1 77.3 53.1 Q 77.109 53.005 77.1 53.365 A 1.467 1.467 0 0 0 77.1 53.4 L 76.9 53 L 75.6 52.4 L 74.5 50.8 L 73.5 46.6 L 74.5 44.6 Q 74.219 43.29 74.114 41.63 A 28.691 28.691 0 0 1 74.1 41.4 Q 74 39.6 74 37.9 L 74 33.8 L 74 32.5 L 74.2 31.1 L 73.8 31 Q 73.8 29.6 73.9 28.25 Q 74 26.9 74 25.6 Q 74 24.5 73.9 23.6 A 13.343 13.343 0 0 0 73.696 22.319 A 11.608 11.608 0 0 0 73.6 21.9 L 70.7 27 Q 70.1 28.7 69.5 29.25 A 2.55 2.55 0 0 0 69.174 29.623 Q 68.714 30.252 68.2 31.5 Q 67.7 32.5 67.2 33.45 Q 66.7 34.4 66 35.2 L 64.6 37.4 Q 64.1 37.7 63.5 38.05 Q 62.9 38.4 62.4 38.7 A 17.009 17.009 0 0 0 62.046 38.918 Q 61.769 39.094 61.55 39.25 Q 61.201 39.499 61.3 39.5 A 1.736 1.736 0 0 1 60.935 39.455 Q 60.383 39.334 59.484 38.892 A 15.282 15.282 0 0 1 59.4 38.85 A 10.812 10.812 0 0 1 58.732 38.488 Q 58.103 38.116 57.748 37.761 A 2.413 2.413 0 0 1 57.6 37.6 A 0.797 0.797 0 0 1 57.486 37.45 Q 57.385 37.286 57.3 37.018 A 4.025 4.025 0 0 1 57.25 36.85 A 20.671 20.671 0 0 0 57.02 36.07 A 24.132 24.132 0 0 0 56.9 35.7 Z M 23.6 48.1 L 23.5 48.1 Q 23.594 48.761 23.689 49.021 A 0.985 0.985 0 0 0 23.7 49.05 A 1.086 1.086 0 0 1 23.752 49.228 Q 23.8 49.454 23.8 49.8 A 0.896 0.896 0 0 1 23.753 50.102 Q 23.66 50.362 23.385 50.487 A 1.089 1.089 0 0 1 23.2 50.55 A 0.967 0.967 0 0 0 22.586 51.025 Q 22.469 51.223 22.4 51.5 A 1.045 1.045 0 0 0 22.091 51.282 A 0.94 0.94 0 0 0 21.7 51.2 L 21.5 51.2 L 21.4 52.8 L 19.6 53.4 L 18.2 52.2 L 16.2 52.2 L 15 52.4 L 12.6 51.5 L 12.7 51 L 13.4 50.9 L 12 48 L 12.7 43.7 L 12.4 42.3 L 12.3 41.3 L 12.5 41.6 A 96.621 96.621 0 0 0 12.597 40.573 Q 12.645 40.031 12.694 39.43 A 156.266 156.266 0 0 0 12.7 39.35 Q 12.8 38.1 12.8 37.5 L 12.8 37.2 L 13.3 38.2 L 13 35.8 L 12.3 36.5 L 12.5 35 L 12.4 34.1 L 13.2 32.7 L 13 31.8 L 12.2 32.4 L 12.5 30.8 A 16.563 16.563 0 0 0 12.544 30.472 Q 12.586 30.13 12.596 29.896 A 3.218 3.218 0 0 0 12.6 29.75 Q 12.6 29.415 12.876 28.941 A 3.667 3.667 0 0 1 12.9 28.9 L 13.2 27.4 L 12.7 27.15 Q 12.443 27.021 12.406 26.856 A 0.258 0.258 0 0 1 12.4 26.8 L 7.7 20.8 Q 7.6 20.7 7.25 20.15 A 264.178 264.178 0 0 0 6.925 19.64 Q 6.758 19.38 6.575 19.094 A 440.213 440.213 0 0 0 6.45 18.9 A 398.375 398.375 0 0 1 6.075 18.316 Q 5.904 18.049 5.75 17.808 A 234.136 234.136 0 0 1 5.65 17.65 Q 5.3 17.1 5.2 17 L 2.2 11.9 L 0 7.1 L 1 6.3 L 0.9 6.2 Q 0.9 6 0.95 5.8 L 1.1 5.2 L 1.4 4.3 L 1.5 4.2 A 0.655 0.655 0 0 1 1.689 4.232 Q 1.955 4.313 2.35 4.6 A 4.112 4.112 0 0 0 2.602 4.77 Q 2.844 4.92 3.025 4.972 A 0.638 0.638 0 0 0 3.2 5 L 3.3 5 L 4.2 5 L 6.9 7.3 A 0.442 0.442 0 0 1 6.949 7.36 Q 7.044 7.498 7.2 7.85 Q 7.4 8.3 7.55 8.75 Q 7.7 9.2 7.85 9.6 A 4.908 4.908 0 0 0 7.913 9.761 Q 8.005 9.982 8.075 10.072 A 0.307 0.307 0 0 0 8.1 10.1 Q 8.695 10.695 9.831 12.323 A 53.44 53.44 0 0 1 9.85 12.35 A 133.732 133.732 0 0 0 10.677 13.524 Q 11.338 14.45 11.9 15.2 L 13.1 16.8 L 15.9 19.9 L 16.2 19.7 A 5.232 5.232 0 0 0 17.169 18.343 A 6.482 6.482 0 0 0 17.45 17.7 A 6.039 6.039 0 0 1 18.067 16.477 A 5.016 5.016 0 0 1 18.7 15.7 L 19 15.2 A 1.205 1.205 0 0 0 19.686 14.533 A 1.466 1.466 0 0 0 19.7 14.5 Q 19.872 14.414 20.155 13.885 A 7.722 7.722 0 0 0 20.25 13.7 Q 20.6 13 20.95 12.15 A 25.984 25.984 0 0 1 21.344 11.241 A 20.398 20.398 0 0 1 21.65 10.6 Q 21.934 10.031 22.12 9.859 A 0.354 0.354 0 0 1 22.2 9.8 Q 22.285 9.715 22.768 8.943 A 76.522 76.522 0 0 0 22.95 8.65 Q 23.6 7.6 24.35 6.3 Q 25.1 5 25.75 3.9 A 163.476 163.476 0 0 0 25.974 3.519 Q 26.359 2.864 26.472 2.655 A 2.198 2.198 0 0 0 26.5 2.6 L 27.5 0.7 L 28.4 0 L 30.8 0.4 L 31.8 0.9 L 32.2 1.4 Q 32.578 1.872 32.911 2.032 A 1 1 0 0 0 32.95 2.05 Q 33.24 2.174 33.427 2.538 A 1.894 1.894 0 0 1 33.5 2.7 L 33.7 3.1 L 33.9 5.6 L 35.6 5.6 L 33.8 8.6 Q 33.2 9.6 32.9 10.2 A 11.538 11.538 0 0 1 32.605 10.754 Q 32.452 11.021 32.3 11.25 A 7.834 7.834 0 0 1 31.84 11.869 A 9.213 9.213 0 0 1 31.6 12.15 A 7.597 7.597 0 0 1 31.312 12.455 Q 30.951 12.818 30.4 13.3 A 4.821 4.821 0 0 0 29.685 14.123 Q 29.119 14.931 28.65 16.15 A 29.652 29.652 0 0 1 28.24 17.164 Q 27.85 18.074 27.506 18.667 A 6.348 6.348 0 0 1 27.3 19 Q 27.1 19.1 26.75 19.55 Q 26.4 20 26.1 20.5 Q 25.8 21 25.6 21.4 Q 25.446 21.709 25.47 21.779 A 0.029 0.029 0 0 0 25.5 21.8 L 25 22.1 Q 25 22.183 24.931 22.266 A 0.497 0.497 0 0 1 24.9 22.3 A 0.731 0.731 0 0 0 24.831 22.381 Q 24.798 22.425 24.766 22.48 A 1.826 1.826 0 0 0 24.7 22.6 L 24.5 23 A 0.302 0.302 0 0 0 24.364 23.143 Q 24.309 23.256 24.301 23.44 A 1.465 1.465 0 0 0 24.3 23.5 A 2.083 2.083 0 0 0 24.33 23.843 A 2.796 2.796 0 0 0 24.4 24.15 A 2.634 2.634 0 0 1 24.495 24.727 A 3.075 3.075 0 0 1 24.5 24.9 A 1.629 1.629 0 0 1 24.481 25.158 Q 24.461 25.287 24.417 25.382 A 0.434 0.434 0 0 1 24.05 25.65 A 0.371 0.371 0 0 0 23.768 25.847 Q 23.607 26.115 23.6 26.742 A 5.176 5.176 0 0 0 23.6 26.8 L 23.6 27.7 A 5.634 5.634 0 0 1 23.596 27.907 Q 23.585 28.205 23.54 28.33 A 0.195 0.195 0 0 1 23.501 28.399 L 23.2 28.7 Q 23.283 29.117 23.401 29.429 A 2.983 2.983 0 0 0 23.45 29.55 Q 23.6 29.9 23.6 30.4 L 23.6 30.6 L 23.1 31.1 L 22.8 30.9 L 22.8 31.3 A 0.426 0.426 0 0 0 22.829 31.453 A 0.523 0.523 0 0 0 22.85 31.5 A 0.482 0.482 0 0 1 22.89 31.612 A 0.408 0.408 0 0 1 22.9 31.7 L 23.1 31.7 L 23.7 32.9 L 24.1 32.7 L 24.1 33.5 A 1.579 1.579 0 0 0 24.104 33.594 Q 24.118 33.821 24.188 34.356 A 40.261 40.261 0 0 0 24.2 34.45 Q 24.282 35.068 24.297 35.449 A 3.994 3.994 0 0 1 24.3 35.6 L 24.3 35.8 A 1.012 1.012 0 0 1 24.117 35.541 Q 23.987 35.284 23.92 34.885 A 4.112 4.112 0 0 1 23.9 34.75 A 5.24 5.24 0 0 0 23.851 34.448 Q 23.766 34.009 23.633 33.837 A 0.402 0.402 0 0 0 23.6 33.8 L 23.6 34.3 A 0.746 0.746 0 0 0 23.547 34.445 Q 23.5 34.625 23.5 34.9 Q 23.5 35.12 23.608 35.394 A 2.536 2.536 0 0 0 23.7 35.6 L 23.5 35.6 A 0.315 0.315 0 0 1 23.362 35.572 Q 23.229 35.508 23.205 35.297 A 0.875 0.875 0 0 1 23.2 35.2 L 23.1 36.6 A 1.261 1.261 0 0 1 23.544 36.907 Q 23.755 37.138 23.822 37.48 A 1.678 1.678 0 0 1 23.85 37.7 Q 23.9 38.5 23.9 39 A 1.093 1.093 0 0 1 23.665 38.977 Q 23.361 38.91 23.25 38.65 A 0.54 0.54 0 0 0 22.872 38.332 Q 22.768 38.304 22.64 38.301 A 1.369 1.369 0 0 0 22.6 38.3 L 22.6 39.2 L 23 39.2 Q 23.4 39.2 23.4 40 L 23.4 40.3 A 10.193 10.193 0 0 0 23.167 40.158 Q 22.584 39.816 22.5 39.9 A 0.083 0.083 0 0 1 22.458 39.922 Q 22.32 39.952 21.9 39.7 L 21.9 40.7 A 0.319 0.319 0 0 1 21.895 40.756 Q 21.89 40.787 21.878 40.811 A 0.148 0.148 0 0 1 21.85 40.85 Q 21.809 40.891 21.801 40.967 A 0.352 0.352 0 0 0 21.8 41 A 0.666 0.666 0 0 0 21.808 41.106 Q 21.838 41.291 21.985 41.3 A 0.253 0.253 0 0 0 22 41.3 L 22.2 41.5 A 1.374 1.374 0 0 1 22.203 41.406 Q 22.213 41.264 22.255 41.22 A 0.06 0.06 0 0 1 22.3 41.2 A 1.456 1.456 0 0 0 22.396 41.243 Q 22.65 41.347 23.3 41.55 A 2.807 2.807 0 0 1 23.592 41.658 Q 23.881 41.785 24.006 41.943 A 0.407 0.407 0 0 1 24.1 42.2 Q 24.013 42.374 23.964 42.434 A 0.205 0.205 0 0 1 23.95 42.45 A 0.111 0.111 0 0 0 23.927 42.486 Q 23.903 42.546 23.9 42.672 A 1.475 1.475 0 0 0 23.9 42.7 L 23.9 42.8 Q 23.238 42.8 22.934 43.069 A 0.739 0.739 0 0 0 22.9 43.1 L 23.6 43.1 A 4.868 4.868 0 0 0 23.641 43.71 Q 23.702 44.186 23.85 44.75 A 7.515 7.515 0 0 1 24.082 46.118 A 6.64 6.64 0 0 1 24.1 46.6 L 24.1 46.8 L 24 47 L 23.7 46.5 L 23.6 47.6 L 23.7 47.6 A 1.243 1.243 0 0 1 23.698 47.679 Q 23.69 47.795 23.659 47.839 A 0.082 0.082 0 0 1 23.65 47.85 A 0.111 0.111 0 0 0 23.627 47.886 Q 23.603 47.946 23.6 48.072 A 1.475 1.475 0 0 0 23.6 48.1 Z M 45.7 20.9 L 45.4 21.5 A 11.376 11.376 0 0 0 45.17 22.289 A 13.699 13.699 0 0 0 45.05 22.8 Q 44.9 23.5 44.8 24.1 L 45.5 23.9 L 45.7 20.9 Z M 49.1 34.2 L 49.1 33.6 L 48.7 33.9 Q 48.7 34.065 48.598 34.502 A 13.078 13.078 0 0 1 48.55 34.7 Q 48.432 35.174 48.407 35.461 A 1.622 1.622 0 0 0 48.4 35.6 L 48.4 35.7 A 1.295 1.295 0 0 0 48.997 34.94 Q 49.074 34.701 49.093 34.406 A 3.153 3.153 0 0 0 49.1 34.2 Z M 83.7 24.9 Q 84.1 24.9 84.1 25.4 A 0.576 0.576 0 0 1 84.08 25.558 Q 84.029 25.736 83.848 25.783 A 0.589 0.589 0 0 1 83.7 25.8 A 0.144 0.144 0 0 1 83.572 25.721 Q 83.507 25.612 83.501 25.355 A 2.293 2.293 0 0 1 83.5 25.3 Q 83.5 25.119 83.573 25.011 A 0.326 0.326 0 0 1 83.7 24.9 Z M 49 32.4 L 48.7 32.8 L 48.6 33.2 L 49.3 32.7 L 49 32.4 Z M 84 26.6 L 84 26.7 A 0.666 0.666 0 0 1 83.992 26.806 Q 83.962 26.991 83.815 27 A 0.253 0.253 0 0 1 83.8 27 Q 83.7 27 83.7 26.6 A 0.601 0.601 0 0 1 83.703 26.533 Q 83.711 26.466 83.735 26.433 A 0.076 0.076 0 0 1 83.8 26.4 L 84 26.6 Z"
                  vector-effect="non-scaling-stroke"/>
        </g>
    </svg>
    <style>@media (prefers-color-scheme: light) { :root { filter: none; } }
        @media (prefers-color-scheme: dark) { :root { filter: none; } }
    </style>
</svg>